<svg width="193" height="32" viewBox="0 0 193 32" fill="none" xmlns="http://www.w3.org/2000/svg">
<g clip-path="url(#clip0_85_1231)">
<path d="M54.2583 26.7229C47.9926 26.7229 44 22.4097 44 16.0274C44 9.84915 47.9051 5.44858 54.2583 5.44858C59.5623 5.44858 63.2051 8.53773 64.0794 13.7543H60.4949C59.8537 10.5486 57.4931 8.59601 54.2583 8.59601C50.1491 8.59601 47.5846 11.4812 47.5846 16.0274C47.5846 20.6903 50.1491 23.5463 54.2583 23.5463C57.5514 23.5463 59.8537 21.652 60.4949 18.4172H64.0794C63.1469 23.7212 59.5914 26.7229 54.2583 26.7229Z" fill="#111111"/>
<path d="M71.6998 26.7229C68.0278 26.7229 65.9004 24.4206 65.9004 21.0692V10.84H69.3393V20.9234C69.3393 22.672 70.5633 23.692 72.3993 23.692C74.7598 23.692 76.1587 22.1474 76.1878 20.1657V10.84H79.6267V26.2857H76.8581L76.5958 24.0417C75.6924 25.7029 73.8564 26.7229 71.6998 26.7229Z" fill="#111111"/>
<path d="M85.6893 26.2857H82.2505V10.84H85.019L85.427 13.8709C86.4179 11.7726 88.2247 10.6652 90.7893 10.6652H91.3722V14.0166H90.7893C87.5836 14.0166 85.6893 15.736 85.6893 18.6503V26.2857Z" fill="#111111"/>
<path d="M94.4795 8.77087C93.2264 8.77087 92.2647 7.78001 92.2647 6.52687C92.2647 5.27373 93.2264 4.31201 94.4795 4.31201C95.7618 4.31201 96.6944 5.27373 96.6944 6.52687C96.6944 7.78001 95.7618 8.77087 94.4795 8.77087ZM96.199 26.2857H92.7601V10.84H96.199V26.2857Z" fill="#111111"/>
<path d="M105.941 26.7229C100.928 26.7229 98.014 23.1966 98.014 18.4172C98.014 13.3754 101.424 10.3737 105.941 10.3737C110.924 10.3737 113.839 13.8709 113.839 18.4172C113.839 23.6337 110.545 26.7229 105.941 26.7229ZM105.941 23.7794C108.709 23.7794 110.341 21.5063 110.341 18.4172C110.341 15.3572 108.622 13.3172 105.941 13.3172C103.26 13.3172 101.511 15.3572 101.511 18.4172C101.511 21.7977 103.405 23.7794 105.941 23.7794Z" fill="#111111"/>
<path d="M119.534 26.2857H116.037V5.88572H119.534V26.2857Z" fill="#111111"/>
<path d="M125.935 26.2857H122.496V10.84H125.265L125.556 13.1132C126.518 11.5103 128.47 10.3737 130.773 10.3737C134.066 10.3737 136.222 12.5886 136.222 16.0566V26.2857H132.783V16.2314C132.783 14.512 131.647 13.3754 129.723 13.3754C127.479 13.3754 125.964 14.92 125.935 16.9309V26.2857Z" fill="#111111"/>
<path d="M146.869 26.2857H143.285L136.844 10.84H140.574L145.092 22.2349L149.58 10.84H153.31L146.869 26.2857Z" fill="#111111"/>
<path d="M161.015 26.7229C156.294 26.7229 153.059 23.3423 153.059 18.6212C153.059 13.5212 156.41 10.3737 160.723 10.3737C165.095 10.3737 168.009 13.4337 168.096 18.4463V19.2623H156.498C156.731 21.9726 158.421 23.8086 161.044 23.8086C162.822 23.8086 164.162 22.9343 164.687 21.3897H168.038C167.251 24.712 164.658 26.7229 161.015 26.7229ZM156.643 16.8434H164.541C164.104 14.6286 162.734 13.288 160.723 13.288C158.683 13.288 157.168 14.6286 156.643 16.8434Z" fill="#111111"/>
<path d="M176.055 26.7229C171.829 26.7229 169.323 24.7412 169.119 21.3606H172.441C172.558 23.0217 173.986 23.896 175.88 23.896C177.628 23.896 178.561 23.2257 178.561 22.0309C178.561 20.836 177.57 20.6029 176.23 20.1657L174.19 19.4954C171.625 18.6503 169.41 17.776 169.41 14.92C169.41 12.1806 171.508 10.3737 175.21 10.3737C178.794 10.3737 181.242 12.268 181.65 15.7652H178.386C178.211 14.0166 176.958 13.2006 175.18 13.2006C173.665 13.2006 172.791 13.8417 172.791 14.8909C172.791 16.0857 174.131 16.4063 175.239 16.7852L177.104 17.3972C180.164 18.4172 182 19.3497 182 22.1183C182 24.9743 179.843 26.7229 176.055 26.7229Z" fill="#111111"/>
<path d="M192.007 26.2857H190.025C186.674 26.2857 184.867 24.6246 184.867 21.5646V13.7543H182.156V10.84H184.867V5.56515H188.306V10.84H192.298V13.7543H188.306V21.3314C188.306 22.6429 188.976 23.3714 190.258 23.3714H192.007V26.2857Z" fill="#111111"/>
<path d="M14.1593 7.17489C14.1593 11.1375 10.9896 14.3498 7.07965 14.3498C3.16966 14.3498 0 11.1375 0 7.17489C0 3.21231 3.16966 0 7.07965 0C10.9896 0 14.1593 3.21231 14.1593 7.17489Z" fill="#002789"/>
<path d="M18.0752 5.33676C18.8762 2.26474 21.6373 0 24.9204 0C28.8303 0 32 3.21231 32 7.17489C32 10.5137 29.7496 13.3199 26.7022 14.1206L24.7788 7.10314L18.0752 5.33676Z" fill="#002789"/>
<path d="M6.1425 17.7125L7.85841 24.2511L14.0645 26.0018C13.5106 29.4046 10.5942 32 7.07965 32C3.16966 32 0 28.7877 0 24.8251C0 21.1845 2.67549 18.1772 6.1425 17.7125Z" fill="#002789"/>
<path d="M32 24.8251C32 28.7877 28.8303 32 24.9204 32C21.0104 32 17.8407 28.7877 17.8407 24.8251C17.8407 20.8625 21.0104 17.6502 24.9204 17.6502C28.8303 17.6502 32 20.8625 32 24.8251Z" fill="#002789"/>
<path d="M18.0752 5.33676C18.8762 2.26474 21.6373 0 24.9204 0C28.8303 0 32 3.21231 32 7.17489C32 10.5137 29.7496 13.3199 26.7022 14.1206L24.7788 7.10314L18.0752 5.33676Z" fill="#FF685F"/>
</g>
<defs>
<clipPath id="clip0_85_1231">
<rect width="193" height="32" fill="white"/>
</clipPath>
</defs>
</svg>
