<svg width="272" height="100" viewBox="0 0 272 100" fill="none" xmlns="http://www.w3.org/2000/svg">
<mask id="mask0_51_2" style="mask-type:luminance" maskUnits="userSpaceOnUse" x="0" y="0" width="272" height="100">
<path d="M271.186 0H0V100H271.186V0Z" fill="white"/>
</mask>
<g mask="url(#mask0_51_2)">
<path d="M102.718 1.55371H60.0366H59.977C56.767 1.61345 54.2109 4.24189 54.2109 7.46769C54.2109 10.6935 56.767 13.3219 59.977 13.3817H60.0366H102.718C105.928 13.3817 108.603 10.7532 108.603 7.46769C108.603 4.18214 105.987 1.55371 102.718 1.55371Z" fill="#77E4E0"/>
<path d="M102.718 23.7759H60.0366H59.977C56.767 23.8357 54.2109 26.4641 54.2109 29.6899C54.2109 32.9157 56.767 35.5441 59.977 35.6039H60.0366H102.718C105.928 35.6039 108.603 32.9754 108.603 29.6899C108.603 26.4043 105.987 23.7759 102.718 23.7759Z" fill="#77E4E0"/>
<path d="M102.718 45.9377H60.0366H59.977C56.767 45.9975 54.2109 48.626 54.2109 51.8517C54.2109 55.0775 56.767 57.706 59.977 57.7657H60.0366H102.718C105.928 57.7657 108.603 55.1373 108.603 51.8517C108.603 48.5662 105.987 45.9377 102.718 45.9377Z" fill="#77E4E0"/>
<path d="M19.4967 1.55371H5.88391C5.88391 1.55371 5.88391 1.55371 5.82447 1.55371C5.76504 1.55371 5.82447 1.55371 5.76504 1.55371C2.61447 1.55371 -0.00110212 4.18214 -0.00110212 7.40796C-0.00110212 10.6338 2.61447 13.2622 5.82447 13.3219H19.4967C28.4135 13.3219 35.6657 20.6099 35.6657 29.5703C35.6657 38.531 28.4135 45.819 19.4967 45.819H5.88391C5.88391 45.819 5.88391 45.819 5.82447 45.819C5.76504 45.819 5.82447 45.819 5.76504 45.819C2.55501 45.819 -0.0605469 48.4474 -0.0605469 51.733C-0.0605469 54.9588 2.55501 57.5872 5.76504 57.647H19.4373C34.8335 57.647 47.3169 45.1021 47.3169 29.6301C47.3763 14.0985 34.8335 1.55371 19.4967 1.55371Z" fill="#77E4E0"/>
<path d="M143.498 13.3219H156.219C156.219 13.3219 156.219 13.3219 156.278 13.3219C156.338 13.3219 156.278 13.3219 156.338 13.3219H157.229V13.2622C160.023 12.7843 162.164 10.3948 162.164 7.46769C162.164 4.54056 160.023 2.09134 157.229 1.67318V1.55371H143.557C128.161 1.55371 115.678 14.0985 115.678 29.5703C115.678 45.0423 128.161 57.5872 143.557 57.5872H156.278C156.278 57.5872 156.278 57.5872 156.338 57.5872C156.397 57.5872 156.338 57.5872 156.397 57.5872H157.289V57.5274C160.083 57.0494 162.223 54.6601 162.223 51.733C162.223 48.8059 160.083 46.3566 157.289 45.9383V45.8788H143.617C134.7 45.8788 127.448 38.5908 127.448 29.6301C127.388 20.6099 134.641 13.3219 143.498 13.3219Z" fill="#77E4E0"/>
<path d="M226.782 51.0155L201.815 3.10633C200.864 1.19474 198.843 0 196.643 0C194.444 0 192.482 1.19474 191.471 3.2258L166.326 50.9558C165.791 51.8518 165.494 52.8673 165.494 54.0024C165.494 57.2282 168.11 59.9164 171.379 59.9164C173.757 59.9164 175.778 58.4827 176.729 56.4515L196.643 18.5185L216.438 56.5113C217.389 58.4827 219.41 59.8567 221.729 59.8567C224.939 59.8567 227.613 57.2282 227.613 53.9427C227.555 52.9271 227.318 51.9115 226.782 51.0155Z" fill="#77E4E0"/>
<path d="M270.889 22.7588V22.5797C270.829 19.4136 268.215 16.8449 265.005 16.8449C261.793 16.8449 259.239 19.4136 259.119 22.5797V22.6991V33.3324L244.019 33.0337L260.486 9.13881C260.486 9.07908 260.546 9.07908 260.546 9.01935L260.606 8.95961C261.199 8.06355 261.555 6.92855 261.555 5.73381C261.555 2.50799 258.941 -0.180176 255.671 -0.180176C253.768 -0.180176 252.104 0.715881 251.034 2.14957L228.148 35.3037C226.901 37.0957 226.781 39.4255 227.732 41.3371C228.744 43.2488 230.704 44.5033 232.845 44.5631L259.119 45.0408V53.7624C259.119 56.9884 261.735 59.6764 265.005 59.6764C268.215 59.6764 270.889 57.0479 270.889 53.7624V22.7588Z" fill="#8227FB"/>
<path d="M130.245 99.6423H127.689C127.51 99.6423 127.391 99.5825 127.332 99.4031L126.084 94.8631C126.024 94.684 125.905 94.684 125.727 94.684H120.199C120.02 94.684 119.901 94.7438 119.842 94.8631L118.594 99.4031C118.534 99.5825 118.415 99.6423 118.237 99.6423H115.681C115.443 99.6423 115.324 99.5227 115.324 99.3436C115.324 99.224 115.502 98.6865 115.681 98.2085L121.685 78.316C121.744 78.1367 121.863 78.0771 122.041 78.0771H123.884C124.062 78.0771 124.181 78.1367 124.241 78.316L130.304 98.2683C130.423 98.6865 130.601 99.1643 130.601 99.3436C130.661 99.5825 130.482 99.6423 130.245 99.6423ZM124.954 90.8609L123.468 85.0663C123.409 84.7676 123.111 83.8118 123.052 83.5729H122.933C122.874 83.8716 122.576 84.8871 122.517 85.126L121.031 90.7414C120.912 91.1596 120.793 91.518 120.793 91.6374C120.793 91.7569 120.912 91.936 121.15 91.936H124.716C124.954 91.936 125.073 91.8167 125.073 91.6374C125.132 91.518 125.073 91.2789 124.954 90.8609Z" fill="#8227FB"/>
<path d="M145.523 99.6423H138.687C138.449 99.6423 138.33 99.5227 138.33 99.2838V78.4356C138.33 78.1965 138.449 78.0771 138.687 78.0771H145.523C149.268 78.0771 151.646 80.4665 151.646 84.23V93.4892C151.646 97.3125 149.268 99.6423 145.523 99.6423ZM148.554 83.9314C148.554 82.2587 147.187 80.8249 145.463 80.8249H141.718C141.481 80.8249 141.362 80.9445 141.362 81.1834V96.5956C141.362 96.8345 141.481 96.954 141.718 96.954H145.463C147.128 96.954 148.554 95.58 148.554 93.8476V83.9314Z" fill="#8227FB"/>
<path d="M173.46 78.9731L167.278 99.4031C167.218 99.5825 167.1 99.6423 166.921 99.6423H165.079C164.9 99.6423 164.781 99.5825 164.722 99.4031L158.659 79.3316C158.48 78.7938 158.361 78.4951 158.361 78.3758C158.361 78.1965 158.48 78.0771 158.718 78.0771H161.274C161.452 78.0771 161.571 78.1367 161.631 78.316L165.554 92.5931C165.614 92.832 165.851 93.7283 165.911 93.9671H166.089C166.149 93.6685 166.386 92.832 166.446 92.5931L170.369 78.316C170.428 78.1367 170.547 78.0771 170.726 78.0771H173.282C173.52 78.0771 173.639 78.1965 173.639 78.3758C173.639 78.4951 173.52 78.7343 173.46 78.9731Z" fill="#8227FB"/>
<path d="M184.102 99.6423H181.724C181.486 99.6423 181.367 99.5227 181.367 99.2838V78.4356C181.367 78.1965 181.486 78.0771 181.724 78.0771H184.102C184.339 78.0771 184.458 78.1965 184.458 78.4356V99.2838C184.399 99.5825 184.339 99.6423 184.102 99.6423Z" fill="#8227FB"/>
<path d="M199.794 100H198.367C195.633 100 194.087 98.9249 193.255 97.4911C192.958 97.0133 192.779 96.6549 192.779 96.4756C192.779 96.3562 192.839 96.2964 192.958 96.1769L194.681 95.2809C194.86 95.1613 195.157 94.9822 195.276 94.9822C195.395 94.9822 195.454 95.042 195.573 95.2211C196.168 96.4756 197.297 97.1924 198.426 97.1924H199.853C201.517 97.1924 202.944 95.8184 202.944 94.0862C202.944 91.9356 200.983 91.0396 198.843 90.024C196.168 88.8293 193.255 87.4553 193.255 83.4529C193.255 80.048 195.633 77.6584 199.378 77.6584H199.913C202.647 77.6584 204.193 78.7933 205.084 80.1673C205.263 80.466 205.56 80.944 205.56 81.0633C205.56 81.1829 205.5 81.3024 205.381 81.3622L203.539 82.2582C203.36 82.3776 203.182 82.4373 203.004 82.4373C202.885 82.4373 202.825 82.3776 202.706 82.2582C202.112 81.0038 200.983 80.3467 199.853 80.3467H199.318C197.654 80.3467 196.227 81.7204 196.227 83.4529C196.227 85.4242 198.367 86.2009 200.626 87.276C203.182 88.4111 205.917 90.024 205.917 94.0862C205.917 97.6107 203.539 100 199.794 100Z" fill="#8227FB"/>
<path d="M221.606 99.9996H220.595C216.85 99.9996 214.473 97.61 214.473 94.2051V83.5718C214.473 80.1669 216.85 77.7773 220.595 77.7773H221.606C225.351 77.7773 227.729 80.1669 227.729 83.5718V94.2051C227.729 97.61 225.351 99.9996 221.606 99.9996ZM224.697 83.5718C224.697 81.8991 223.33 80.4656 221.606 80.4656H220.595C218.931 80.4656 217.504 81.8396 217.504 83.5718V94.2051C217.504 95.8778 218.872 97.3113 220.595 97.3113H221.606C223.27 97.3113 224.697 95.9373 224.697 94.2051V83.5718Z" fill="#8227FB"/>
<path d="M249.787 99.6411H247.173C247.052 99.6411 246.875 99.5215 246.875 99.4019L243.725 90.2622C243.665 90.1428 243.605 90.0831 243.427 90.0831H240.039C239.802 90.0831 239.682 90.2024 239.682 90.4415V99.3422C239.682 99.5813 239.564 99.7006 239.326 99.7006H236.947C236.71 99.7006 236.592 99.5813 236.592 99.3422V78.4939C236.592 78.2551 236.71 78.1355 236.947 78.1355H243.783C247.528 78.1355 249.907 80.5251 249.907 84.2886V84.6468C249.907 86.4988 248.302 88.6493 246.935 89.2466C246.815 89.3064 246.757 89.3662 246.757 89.5453C246.757 89.6648 246.875 89.9635 247.052 90.3817L249.907 98.5657C250.024 98.9839 250.204 99.2826 250.204 99.4019C250.144 99.5813 250.024 99.6411 249.787 99.6411ZM246.875 83.9302C246.875 82.2575 245.508 80.8237 243.783 80.8237H240.039C239.802 80.8237 239.682 80.9433 239.682 81.1822V86.9766C239.682 87.2157 239.802 87.3351 240.039 87.3351H243.783C245.448 87.3351 246.875 85.9611 246.875 84.2288V83.9302Z" fill="#8227FB"/>
<path d="M270.891 79.0927L265.42 89.3076C265.242 89.666 265.182 89.9647 265.182 90.3829V99.3436C265.182 99.5825 265.065 99.7018 264.827 99.7018H262.448C262.21 99.7018 262.093 99.5825 262.093 99.3436V90.3231C262.093 89.9049 262.033 89.6063 261.855 89.3076L256.327 78.9134C256.207 78.7343 256.146 78.5549 256.146 78.3758C256.146 78.1965 256.267 78.0771 256.504 78.0771H259.298C259.416 78.0771 259.536 78.1965 259.594 78.2563L263.34 86.0818C263.4 86.2611 263.517 86.3805 263.637 86.3805C263.755 86.3805 263.875 86.2611 263.935 86.0818L267.679 78.2563C267.739 78.1367 267.859 78.0771 267.976 78.0771H270.771C271.008 78.0771 271.128 78.1965 271.128 78.3758C271.186 78.5549 271.068 78.7343 270.891 79.0927Z" fill="#8227FB"/>
</g>
</svg>
